<svg id="Layer_1" data-name="Layer 1" xmlns="http://www.w3.org/2000/svg" viewBox="0 0 881 164"><defs><style>.cls-1{fill:#fff;stroke:#fff;stroke-miterlimit:10;stroke-width:2px;}</style></defs><path class="cls-1" d="M82.76,28.56Q88,37.16,88,51.09A103.32,103.32,0,0,1,84.4,77.23a102.13,102.13,0,0,1-9.64,24.43A47.37,47.37,0,0,1,64.44,114.9q-5.5,4.65-11,4.65-7.23,0-12.39-8.78T34.86,84.63a28.61,28.61,0,0,1-3.1-2.92q-3.27-4.3-3.26-11.18A41.42,41.42,0,0,1,30.73,57.8a68,68,0,0,1,6.19-13.59q1.56-10,2.76-16.34c.11-.46.34-.69.68-.69q.87,0,3.79,3.44V31a.82.82,0,0,1-.52.77.68.68,0,0,1-.86-.09,8.48,8.48,0,0,0-.86-1.2c-.46-.57-.75-.63-.86-.17q-.69,3.44-1.72,10.32A60.73,60.73,0,0,1,52.66,25.81Q60.15,20,66.68,20,77.51,20,82.76,28.56ZM34.86,82.39a18.21,18.21,0,0,1-.17-2.92l-.17-5.16A177.61,177.61,0,0,1,36.41,49Q30,61.41,30,70.7a15.7,15.7,0,0,0,3.1,10A6,6,0,0,0,34.86,82.39Zm48-6a99.18,99.18,0,0,0,3.61-25.45q0-12.9-4.64-20.81T67.54,21.68q-6.89-.18-14.79,6.53A69.06,69.06,0,0,0,38.64,45.07a200.61,200.61,0,0,0-2.23,34.4l.17,4.3q5,3.09,16.17,3.78c.8,0,1.2.29,1.2.86s-.46,1-1.37.86q-10.5-.67-15.83-3.44,1,16.17,5.59,24.26t11.1,8.08q5,0,10.14-4.47a46.85,46.85,0,0,0,9.81-12.9A112.35,112.35,0,0,0,82.85,76.37Z"/><path class="cls-1" d="M101.25,15.49a1.06,1.06,0,0,1,1.29-.86c.63.11.95.74.95,1.89q0,3.09-2.93,9.11a174.84,174.84,0,0,0-2.66,21q-1.12,13.76-1.12,26.49,0,17.37,2.06,23.9,2.41,7.06,6.71,7.06,3.78,0,7.91-4.3a35.79,35.79,0,0,0,5.85-7.57c.23-.57.6-.78,1.12-.6s.66.54.43,1.11a20.81,20.81,0,0,1-3.27,5.16,32.93,32.93,0,0,1-5.85,5.77,10.57,10.57,0,0,1-6.36,2.49q-5.34,0-8.43-8.6-2.07-6-2.07-23.39,0-11.36.87-23.48t2.06-19.87L97,32.51a1.38,1.38,0,0,1-1,.69.56.56,0,0,1-.52-.43,1.92,1.92,0,0,1,0-1.12L99,24.09A60.1,60.1,0,0,1,101.25,15.49Z"/><path class="cls-1" d="M116,70.53A4.25,4.25,0,0,1,117.67,67a6.62,6.62,0,0,1,4.22-1.29,12.67,12.67,0,0,1,8.25,3.35A14.46,14.46,0,0,1,135,78.44a67.21,67.21,0,0,0,8.26.51,35.52,35.52,0,0,0,12.21-1.89h.34q.53,0,.6.69c.06.46-.08.75-.43.86a40.09,40.09,0,0,1-12.72,1.89q-1,0-8.26-.51a20.1,20.1,0,0,1-1.2,7.13,26.27,26.27,0,0,1-3.62,7.31q-2.23,3.1-5,3.1a5.24,5.24,0,0,1-4.91-3.27,18,18,0,0,1-1.63-8.08,26.38,26.38,0,0,1,.69-6.37c.11-.68.46-1,1-1s.86.35.86,1a25.53,25.53,0,0,0-.86,6.2,16.76,16.76,0,0,0,1.29,7q1.29,2.84,3.53,2.84,3.09,0,5.76-5.68a20.8,20.8,0,0,0,2.32-10.32,54.72,54.72,0,0,1-12-2.83,8,8,0,0,1-5-5.08A4.58,4.58,0,0,1,116,70.53Zm17.2,7.74a11.63,11.63,0,0,0-4-8.09,11,11,0,0,0-7.22-2.92,5,5,0,0,0-3.53,1.2,3.37,3.37,0,0,0-.77,3.44Q118.8,76.72,133.24,78.27Z"/><path class="cls-1" d="M153.19,95l3.44-.86q.18-9.63.69-28.21t1.2-25.28l-.86,1.72c-.34.57-.63.86-.86.86a.71.71,0,0,1-.6-.43,1.44,1.44,0,0,1-.08-1.12l3.09-7.91A44,44,0,0,1,160.76,25a1.06,1.06,0,0,1,1.29-.86c.63.11.95.86.95,2.23q0,3.11-2.24,9-.87,7-1.63,28.89t-.78,29.41a95.21,95.21,0,0,0,15.4-5.93,68.74,68.74,0,0,0,14-10.06l.35-.17a1,1,0,0,1,.86.6.86.86,0,0,1-.17,1.12,129.2,129.2,0,0,1-14.11,10.14q-6,3.62-16.34,6.2v1a10,10,0,0,1,4.73,5.67,25.31,25.31,0,0,1,1.46,8.78,21.14,21.14,0,0,1-.86,6.36c-.57,1.84-1.26,2.75-2.06,2.75s-1.89-1.72-2.92-5.16a78.62,78.62,0,0,1-2.07-17.37,8.35,8.35,0,0,0-3.44-.69l-2.92.52-.86.17a1.72,1.72,0,0,1-1.12-.34,1.06,1.06,0,0,1-.43-.86,1.65,1.65,0,0,1,.52-1.21,2.1,2.1,0,0,1,1.54-.51C150.27,94.61,151.36,94.72,153.19,95Zm7.23,19.61c.34,1.37.74,2.06,1.2,2.06s.66-.51.95-1.55a14.57,14.57,0,0,0,.43-3.78,23.66,23.66,0,0,0-1.12-7.14,11.5,11.5,0,0,0-3.36-5.42A73.84,73.84,0,0,0,160.42,114.56Z"/><path class="cls-1" d="M191.29,94.61A81,81,0,0,1,207.2,84.29a17.9,17.9,0,0,0-3.44-4.65c-1.49-1.49-3.56-3.32-6.19-5.5-.46-.46-1.67-1.55-3.61-3.27a53.41,53.41,0,0,1-5.16-5.16,2.78,2.78,0,0,1-.86-2.06,1.74,1.74,0,0,1,.94-1.47,5,5,0,0,1,2.67-.6,11.21,11.21,0,0,1,6.79,2.07q2.83,2.05,2.84,4.47,0,2.23-2.58,3.44c-.34.11-.63-.09-.86-.6s-.17-.83.17-.95c1-.57,1.55-1.2,1.55-1.89,0-1.15-.77-2.24-2.32-3.27a9.89,9.89,0,0,0-5.59-1.55q-2.42,0-1.38,1.38a75.07,75.07,0,0,0,8.43,8.08q4.13,3.61,6.45,5.94a17.34,17.34,0,0,1,3.53,4.9,102.15,102.15,0,0,1,18.74-6.54h.35c.57,0,.83.23.77.69a1.31,1.31,0,0,1-.77,1,109.29,109.29,0,0,0-18.41,6.37,11.24,11.24,0,0,1,.69,3.44,11.25,11.25,0,0,1-1.55,5.16q-2.75,5-9.54,8.68t-11.44,3.7q-4.3,0-3.27-3.27Q184.84,100.12,191.29,94.61Zm-3.53,9.63q4,0,10.07-3.18a21.89,21.89,0,0,0,9-8.17,11.19,11.19,0,0,0,1.37-4.82,9.66,9.66,0,0,0-.34-2.24,83.82,83.82,0,0,0-11.53,6.88,56.16,56.16,0,0,0-7.74,6.54q-2.75,2.93-2.75,4.13C185.87,104,186.5,104.24,187.76,104.24Z"/><path class="cls-1" d="M242.29,35.27q1.89-16.17,2.23-17c.46-.8,1-1.21,1.55-1.21a1.71,1.71,0,0,1,1.29.69,3.64,3.64,0,0,1,.78,1.89,69.66,69.66,0,0,1-1.21,14.8q7.57-1,9.46-1h.17a1.83,1.83,0,0,1,.95.26.75.75,0,0,1,.43.6c0,.58-.52.86-1.55.86a63.86,63.86,0,0,0-9.63.86,119.31,119.31,0,0,1-5.68,24.26q-5.16,50-4.64,73.78c0,1.26-.29,1.9-.86,1.9-.23,0-.43-.18-.6-.52a3.11,3.11,0,0,1-.26-1.38q-.34-18.74,4.13-67.94a48.12,48.12,0,0,1-2.24,5c-.34.69-.74,1-1.2,1s-.69-.28-.69-.86a3.84,3.84,0,0,1,.52-1.54,88.05,88.05,0,0,0,4.47-11l.69-6.37q1-10.49,1.72-15.48a92.89,92.89,0,0,0-9.46,2.58,1.63,1.63,0,0,0-1.21,1,.3.3,0,0,1-.34.34,1.13,1.13,0,0,1-1-.52c-.24-.34-.18-.74.17-1.2Q231.63,37.51,242.29,35.27Zm2.75,1-1.38.34-1.54,13.42Q244.18,42,245,36.3Zm1.55-13.93q0-3.27-.69-2.76-.35.87-2.06,15.31l1.54-.17A77.44,77.44,0,0,0,246.59,22.37Z"/><path class="cls-1" d="M244.35,70.53A4.26,4.26,0,0,1,246,67a6.59,6.59,0,0,1,4.21-1.29,12.67,12.67,0,0,1,8.26,3.35,14.5,14.5,0,0,1,4.81,9.38,67.46,67.46,0,0,0,8.26.51,35.52,35.52,0,0,0,12.21-1.89h.34c.35,0,.55.23.61.69s-.09.75-.43.86a40.2,40.2,0,0,1-12.73,1.89q-1,0-8.26-.51a19.65,19.65,0,0,1-1.2,7.13,26.26,26.26,0,0,1-3.61,7.31c-1.49,2.07-3.16,3.1-5,3.1a5.23,5.23,0,0,1-4.9-3.27,18,18,0,0,1-1.64-8.08,26.38,26.38,0,0,1,.69-6.37c.11-.68.46-1,1-1s.86.35.86,1a26,26,0,0,0-.86,6.2,16.76,16.76,0,0,0,1.29,7q1.29,2.84,3.53,2.84,3.09,0,5.76-5.68a20.8,20.8,0,0,0,2.32-10.32,54.72,54.72,0,0,1-12-2.83,7.91,7.91,0,0,1-5-5.08A4.24,4.24,0,0,1,244.35,70.53Zm17.2,7.74a11.66,11.66,0,0,0-3.95-8.09,11,11,0,0,0-7.23-2.92,5,5,0,0,0-3.52,1.2,3.37,3.37,0,0,0-.78,3.44Q247.11,76.72,261.55,78.27Z"/><path class="cls-1" d="M302.66,68.46c.69,0,1,.23,1,.69a1.12,1.12,0,0,1-.51.77,1.83,1.83,0,0,1-1.21.43,7.25,7.25,0,0,1-4-1.54,10.84,10.84,0,0,0-3.79-1.38q-2.58,0-4.38,5.33T286.67,92.2c-.12,1.49-.64,2.23-1.55,2.23s-1.38-.51-1.72-1.54-.52-4.42-.52-10.15q0-14.62,1.38-21.5a.88.88,0,0,1,1.72.34,80.47,80.47,0,0,0-1.12,10q-.44,6.54-.43,12.55,0,3.45.17,5.94c.11,1.66.29,2.38.52,2.15q.51-13.42,3-20.73t6.62-6.28a10.56,10.56,0,0,1,3.44,1.55c1.95,1.26,3.32,1.84,4.13,1.72Z"/><path class="cls-1" d="M310.06,87.9a146.47,146.47,0,0,0-1.38-21.85q0-.51.69-.6c.46,0,.75.09.86.43a161.41,161.41,0,0,1,1.55,23.39q0,12.9-1.55,30.62a140.32,140.32,0,0,1,7.91-23.39,10,10,0,0,1-1.89.17,3,3,0,0,1-1.46-.26,2.48,2.48,0,0,1-.78-.77c-.45-.46,0-1.21,1.29-2.24a31.31,31.31,0,0,1,5.59-3.27A95.88,95.88,0,0,1,333.45,70.7q6.54-7.92,12-7.91a4.38,4.38,0,0,1,3.35,1.37,4.81,4.81,0,0,1,1.29,3.44q0,2.93-3.18,7.4a49.94,49.94,0,0,1-8.17,8.77,145.44,145.44,0,0,1,26.84-5.85h.17c.45,0,.68.26.68.78a.86.86,0,0,1-.68.94q-6.37.87-14.62,2.58a125.09,125.09,0,0,0-15.66,4.3,67.11,67.11,0,0,1-15.3,9.12q-6.54,14.79-11.36,37.49l-2.92,22.19a6.6,6.6,0,0,1-1.12,2.41c-.51.69-1,1-1.46,1-1,0-1.55-1.32-1.55-3.95q0-7.06,5.33-23.22A378,378,0,0,0,310.06,87.9Zm9.11,6.19.52-1a14.82,14.82,0,0,0-2.92,1.72A7.85,7.85,0,0,0,319.17,94.09ZM330,88.24a55.79,55.79,0,0,0-7.91,3.61l-.69,1.38A51.65,51.65,0,0,0,330,88.24ZM334.14,85c1.37-.45,3.24-1.83,5.59-4.12a51.93,51.93,0,0,0,6.19-7.23q2.67-3.78,2.67-5.85a3.57,3.57,0,0,0-.86-2.49,3.11,3.11,0,0,0-2.41-1q-4.47,0-10.66,7.4A102.88,102.88,0,0,0,323.3,89.1Q327.08,87.39,334.14,85Z"/><path class="cls-1" d="M368.62,94.61a81.12,81.12,0,0,1,15.92-10.32,18.37,18.37,0,0,0-3.44-4.65c-1.5-1.49-3.56-3.32-6.2-5.5q-.69-.69-3.61-3.27a54.57,54.57,0,0,1-5.16-5.16,2.82,2.82,0,0,1-.86-2.06,1.75,1.75,0,0,1,1-1.47,5,5,0,0,1,2.66-.6,11.22,11.22,0,0,1,6.8,2.07q2.83,2.05,2.84,4.47,0,2.23-2.58,3.44c-.35.11-.64-.09-.86-.6s-.18-.83.17-.95c1-.57,1.54-1.2,1.54-1.89,0-1.15-.77-2.24-2.32-3.27a9.86,9.86,0,0,0-5.59-1.55c-1.6,0-2.06.46-1.37,1.38a75.07,75.07,0,0,0,8.43,8.08q4.13,3.61,6.44,5.94a17.14,17.14,0,0,1,3.53,4.9,102.53,102.53,0,0,1,18.75-6.54H405c.58,0,.83.23.78.69a1.3,1.3,0,0,1-.78,1,109.18,109.18,0,0,0-18.4,6.37,11.24,11.24,0,0,1,.69,3.44,11.37,11.37,0,0,1-1.55,5.16q-2.76,5-9.55,8.68t-11.44,3.7q-4.29,0-3.26-3.27C361.94,101,364.33,98.28,368.62,94.61Zm-3.52,9.63q4,0,10.06-3.18a21.77,21.77,0,0,0,9-8.17,11.08,11.08,0,0,0,1.38-4.82,9.77,9.77,0,0,0-.35-2.24,83.09,83.09,0,0,0-11.52,6.88A55,55,0,0,0,366,99.25c-1.84,2-2.75,3.33-2.75,4.13C363.21,104,363.84,104.24,365.1,104.24Z"/><path class="cls-1" d="M548.28,58a.73.73,0,0,1-.43.6,1.12,1.12,0,0,1-1,.09q-6.54-2.92-18.75-2.93a117.31,117.31,0,0,0-13.76.86q.69,4.65,2.41,13.94l.52,3.26q5.83,9.64,9.11,24a114.84,114.84,0,0,1,3.27,25,24.6,24.6,0,0,1-.86,7.49c-.57,1.66-1.38,2.09-2.41,1.29a3.14,3.14,0,0,1-.86-1.72q-3.78-23.91-9.63-55.22a27.34,27.34,0,0,0-7.22-8.77,39.36,39.36,0,0,0-10.49-6.53q-4.31,1-11,2.23-7.92,16-12.9,28.21t-6,21.16c-.12.57-.41.86-.86.86a1,1,0,0,1-.69-.35.77.77,0,0,1-.17-.86q2.06-16.51,17.88-48.5A114.7,114.7,0,0,1,466.92,64a28.48,28.48,0,0,1-8.08-.86Q454,61.4,454,59.35c0-1.61,2-3,5.94-4.13a52,52,0,0,1,14.36-1.72,76.16,76.16,0,0,1,13.76,1.37l5.33-9.63q9.29-16.85,12.73-25.45l-1.21-7.92V11.7a1.23,1.23,0,0,1,.69-1.2,2.79,2.79,0,0,1,1.21-.35c1.83-.11,2.75.81,2.75,2.76a24.34,24.34,0,0,1-1.72,6.88Q508,21.17,512,43.18l2.06,11.69A125.72,125.72,0,0,1,528.5,54q12.38,0,19.09,3.1A.82.82,0,0,1,548.28,58ZM466.75,62.1A106.34,106.34,0,0,0,485.5,60a29.59,29.59,0,0,0,1.89-3.78,74,74,0,0,0-12.21-1,53.57,53.57,0,0,0-12.64,1.29q-5.25,1.29-5.25,3c0,.57.8,1.2,2.41,1.89A29.69,29.69,0,0,0,466.75,62.1Zm28.21-4c-2.3-.69-4-1.14-5.16-1.37l-1.55,2.75A54,54,0,0,0,495,58.14Zm.51-12.55q-1.55,3.27-5,9.8c3.2.92,5.61,1.66,7.22,2.24h.17a39.64,39.64,0,0,0,4.13-.86l4.13-.69a51.1,51.1,0,0,1,6.19-.86l-5.68-32.51Q504.42,27.87,495.47,45.59Zm17.2,11.18-6.36,1L500.63,59a37.87,37.87,0,0,1,9.29,5.85,28.78,28.78,0,0,1,5.16,5.5Q514.57,66.92,512.67,56.77Zm-5.33-40.08a11.3,11.3,0,0,0,.69-3.44c0-.92-.46-1.2-1.38-.86Zm20.3,107.5a127.8,127.8,0,0,0-2.32-21.59,98.71,98.71,0,0,0-6.8-23l2.58,14.79q3.78,21.16,6,34.75C527.46,128.61,527.64,126.94,527.64,124.19Z"/><path class="cls-1" d="M558.08,15.49a1.06,1.06,0,0,1,1.29-.86c.63.11,1,.74,1,1.89q0,3.09-2.93,9.11a174.84,174.84,0,0,0-2.66,21q-1.12,13.76-1.12,26.49,0,17.37,2.06,23.9,2.42,7.06,6.71,7.06,3.78,0,7.91-4.3a35.13,35.13,0,0,0,5.85-7.57c.23-.57.6-.78,1.12-.6s.66.54.43,1.11a20.81,20.81,0,0,1-3.27,5.16,32.93,32.93,0,0,1-5.85,5.77,10.57,10.57,0,0,1-6.36,2.49c-3.56,0-6.36-2.87-8.43-8.6q-2.06-6-2.06-23.39,0-11.36.86-23.48t2.06-19.87l-.86,1.72a1.38,1.38,0,0,1-1,.69c-.23,0-.4-.14-.52-.43a1.92,1.92,0,0,1,0-1.12l3.62-7.56A59.68,59.68,0,0,1,558.08,15.49Z"/><path class="cls-1" d="M587.67,15.49a1.06,1.06,0,0,1,1.29-.86c.62.11.94.74.94,1.89q0,3.09-2.92,9.11a176.53,176.53,0,0,0-2.67,21q-1.11,13.76-1.12,26.49,0,17.37,2.07,23.9,2.4,7.06,6.71,7.06,3.78,0,7.91-4.3a35.79,35.79,0,0,0,5.85-7.57c.23-.57.6-.78,1.11-.6s.66.54.43,1.11A20.7,20.7,0,0,1,604,97.87a33.27,33.27,0,0,1-5.85,5.77,10.58,10.58,0,0,1-6.37,2.49q-5.32,0-8.42-8.6-2.07-6-2.07-23.39,0-11.36.86-23.48t2.07-19.87l-.86,1.72a1.4,1.4,0,0,1-1,.69c-.23,0-.4-.14-.51-.43a1.76,1.76,0,0,1,0-1.12l3.61-7.56A58.74,58.74,0,0,1,587.67,15.49Z"/><path class="cls-1" d="M618.2,94.61a81,81,0,0,1,15.91-10.32,18.37,18.37,0,0,0-3.44-4.65c-1.5-1.49-3.56-3.32-6.2-5.5q-.69-.69-3.61-3.27a54.57,54.57,0,0,1-5.16-5.16,2.82,2.82,0,0,1-.86-2.06,1.75,1.75,0,0,1,.95-1.47,5,5,0,0,1,2.66-.6,11.22,11.22,0,0,1,6.8,2.07q2.84,2.05,2.83,4.47c0,1.49-.85,2.64-2.58,3.44-.34.11-.63-.09-.85-.6s-.18-.83.17-.95c1-.57,1.55-1.2,1.55-1.89,0-1.15-.78-2.24-2.33-3.27a9.84,9.84,0,0,0-5.59-1.55c-1.6,0-2.06.46-1.37,1.38a75.62,75.62,0,0,0,8.42,8.08q4.14,3.61,6.46,5.94a17.3,17.3,0,0,1,3.52,4.9,102.53,102.53,0,0,1,18.75-6.54h.34c.58,0,.83.23.78.69a1.3,1.3,0,0,1-.78,1,109.18,109.18,0,0,0-18.4,6.37,11.24,11.24,0,0,1,.69,3.44,11.37,11.37,0,0,1-1.55,5.16q-2.76,5-9.55,8.68t-11.43,3.7q-4.3,0-3.27-3.27C611.51,101,613.9,98.28,618.2,94.61Zm-3.53,9.63q4,0,10.06-3.18a21.77,21.77,0,0,0,9-8.17,11.08,11.08,0,0,0,1.38-4.82,9.77,9.77,0,0,0-.35-2.24,83.09,83.09,0,0,0-11.52,6.88,55,55,0,0,0-7.74,6.54c-1.84,2-2.75,3.33-2.75,4.13C612.78,104,613.41,104.24,614.67,104.24Z"/><path class="cls-1" d="M657.33,86.78A14,14,0,0,0,660.08,91,11.55,11.55,0,0,0,668,94.26c2.75,0,5.59-1.14,8.52-3.44s5.7-5.9,8.34-10.83l.69-.35a.85.85,0,0,1,.77.43,1.12,1.12,0,0,1,.09,1q-4.14,7.91-8.86,11.61t-9.38,3.7q-5,0-9.63-4.13a16.2,16.2,0,0,1-3.44-5.59,20.35,20.35,0,0,1-1.37-7.48,17.61,17.61,0,0,1,4.12-11.87A7.09,7.09,0,0,1,663,65a4.44,4.44,0,0,1,3.62,1.72,5.64,5.64,0,0,1,.86,4.65,18.17,18.17,0,0,1-2.5,6.1,11.88,11.88,0,0,1-3.87,4,6.61,6.61,0,0,1-2.23.52A3.17,3.17,0,0,1,656,80.67,16.52,16.52,0,0,0,657.33,86.78Zm-1-10.23A4.89,4.89,0,0,0,657,79.3a2.16,2.16,0,0,0,1.9,1q1.89,0,4-2.75a15.13,15.13,0,0,0,2.75-6.19,4.91,4.91,0,0,0-.34-3.27A2.39,2.39,0,0,0,663,66.91a4.61,4.61,0,0,0-3.26,1.55,9.64,9.64,0,0,0-2.93,5A11.08,11.08,0,0,0,656.29,76.55Z"/><path class="cls-1" d="M704.63,68.46c.69,0,1,.23,1,.69,0,.23-.17.49-.52.77a1.79,1.79,0,0,1-1.2.43,7.25,7.25,0,0,1-4-1.54,10.75,10.75,0,0,0-3.78-1.38q-2.58,0-4.39,5.33T688.63,92.2c-.11,1.49-.63,2.23-1.55,2.23s-1.37-.51-1.72-1.54-.51-4.42-.51-10.15q0-14.62,1.37-21.5a.78.78,0,0,1,1-.69.77.77,0,0,1,.69,1,80.85,80.85,0,0,0-1.11,10q-.44,6.54-.43,12.55c0,2.3.05,4.28.17,5.94s.28,2.38.51,2.15q.52-13.42,3-20.73t6.62-6.28a10.59,10.59,0,0,1,3.45,1.55c1.94,1.26,3.32,1.84,4.12,1.72Z"/><path class="cls-1" d="M710,64.94q.94-.09.78,1.11a64.68,64.68,0,0,0,1.46,12.73Q713.74,86,716,89.62a12.92,12.92,0,0,0,1.72,2.49,2.32,2.32,0,0,0,1.55,1q1.37,0,2.58-2.58,1.54-2.74,3.44-11.7l-1.21-1.37a6.49,6.49,0,0,1-1.2-3.79c0-1.83.51-3.09,1.55-3.78a2.56,2.56,0,0,1,1.54-.69c1.15,0,1.72,1.38,1.72,4.13a24.87,24.87,0,0,1-.51,4.81,15.55,15.55,0,0,0,10,3.27,28.79,28.79,0,0,0,11.7-2.75l.52-.17c.34,0,.57.23.68.69a.83.83,0,0,1-.51,1,31.24,31.24,0,0,1-12.39,2.92,15.57,15.57,0,0,1-10.32-3.44A66,66,0,0,1,723.37,91q-1.89,4-4,4-2.42,0-5-4.47A40.75,40.75,0,0,1,710.65,79a64.83,64.83,0,0,1-1.55-13C709.1,65.37,709.41,65,710,64.94Zm15.91,8c0-1-.17-1.54-.51-1.54-.58,0-.86.63-.86,1.89a6,6,0,0,0,.86,3.27l.17.17Z"/><path class="cls-1" d="M752.1,59c.8,0,1.2.52,1.2,1.55s-.69,2.38-2.06,4-2.53,2.21-3.45,1.64a3,3,0,0,1-1.2-2.58,7.31,7.31,0,0,1,1-3.79l1,.52A7.41,7.41,0,0,1,752.1,59Zm-4,20.81a2.72,2.72,0,0,0-.35-1.72,1.47,1.47,0,0,1-.51-1,1.11,1.11,0,0,1,.77-1,1.25,1.25,0,0,1,1.47.34,5.07,5.07,0,0,1,.51,2.76,52.26,52.26,0,0,1-1,8.6,5,5,0,0,0-.17,1.54c0,2.53,1.31,3.79,3.95,3.79s6.31-1.21,11-3.61a124.44,124.44,0,0,0,15.65-9.81.74.74,0,0,1,.52-.17.82.82,0,0,1,.77.52.83.83,0,0,1-.25,1q-19.28,14.1-28.21,14.1c-3.44,0-5.16-1.77-5.16-5.33a11.46,11.46,0,0,1,.17-2.24A52.19,52.19,0,0,0,748.14,79.81Zm.94-15.48a5.16,5.16,0,0,0,1.81-1.89c.57-.91.75-1.49.52-1.72h-.17a3.74,3.74,0,0,0-1.38.6,4.39,4.39,0,0,0-1.38,1.12,6.81,6.81,0,0,0-.34,1.21C748.14,64.45,748.45,64.68,749.08,64.33Z"/><path class="cls-1" d="M811.78,76a1,1,0,0,1,1,.86c.12.57-.17.92-.86,1q-2.58.69-9.8,5.33a117,117,0,0,1-10.32,6,16.59,16.59,0,0,1-7.22,2.07q-4,0-5.16-4.3a9.17,9.17,0,0,1-.35-2.24,23.19,23.19,0,0,1,2.41-9.29,24.27,24.27,0,0,1,5.68-8.25,6.63,6.63,0,0,1,4.47-2.07,3.19,3.19,0,0,1,2.23.78,2.52,2.52,0,0,1,.86,2A5,5,0,0,1,793,71.39a1.49,1.49,0,0,1-1,.51.68.68,0,0,1-.69-.51,1.34,1.34,0,0,1,.35-1.21,3.36,3.36,0,0,0,1.2-2.23c0-.69-.4-1-1.2-1-1.61,0-3.24,1-4.91,3a25.81,25.81,0,0,0-4.12,7.31,21.49,21.49,0,0,0-1.64,7.4,6.58,6.58,0,0,0,.18,1.89A3.48,3.48,0,0,0,785,89.45q2.74,0,7-2.24T802.32,81l3.61-2.24a16.87,16.87,0,0,1,3.53-1.89l2-.69Z"/><path class="cls-1" d="M814.71,86.78A14,14,0,0,0,817.46,91a11.55,11.55,0,0,0,7.91,3.27c2.75,0,5.59-1.14,8.51-3.44s5.71-5.9,8.35-10.83l.68-.35a.86.86,0,0,1,.78.43,1.08,1.08,0,0,1,.08,1q-4.12,7.91-8.85,11.61t-9.38,3.7q-5,0-9.63-4.13a16.05,16.05,0,0,1-3.44-5.59,20.36,20.36,0,0,1-1.38-7.48,17.62,17.62,0,0,1,4.13-11.87A7.09,7.09,0,0,1,820.38,65,4.42,4.42,0,0,1,824,66.74a5.57,5.57,0,0,1,.86,4.65,18.36,18.36,0,0,1-2.49,6.1,11.88,11.88,0,0,1-3.87,4,6.61,6.61,0,0,1-2.24.52,3.17,3.17,0,0,1-2.92-1.38A16.52,16.52,0,0,0,814.71,86.78Zm-1-10.23a4.89,4.89,0,0,0,.69,2.75,2.15,2.15,0,0,0,1.89,1q1.89,0,4-2.75A15.27,15.27,0,0,0,823,71.39a5,5,0,0,0-.34-3.27,2.4,2.4,0,0,0-2.24-1.21,4.63,4.63,0,0,0-3.27,1.55,9.69,9.69,0,0,0-2.92,5A11.08,11.08,0,0,0,813.67,76.55Z"/></svg>